<svg id="Layer_1" fill="#593196" enable-background="new 0 0 64 64" height="512" viewBox="0 0 64 64" width="512" xmlns="http://www.w3.org/2000/svg"><path d="m27 50h2v2h-2z"/><path d="m27 55h2v2h-2z"/><path d="m51.5 38c-.7 0-1.3.1-2 .3l-9.4-4.4c1.9-1.6 3.2-3.8 3.6-6.2l3-2.3c.8-.6 1.2-1.5 1.2-2.4v-1c0-1.7-1.3-3-3-3h-1v-1l.9-11.3c.2-1.4-.8-2.7-2.2-3.1l-2.4-.6c-5.4-1.3-11.1-1.3-16.5 0l-2.4.6c-1.3.4-2.3 1.7-2.2 3.2l.9 11.2v1h-1c-1.7 0-3 1.3-3 3v1c0 .9.4 1.8 1.2 2.4l3 2.3c.5 2.4 1.8 4.6 3.6 6.2l-9.6 4.5c-3.8 1.8-6.3 5.7-6.3 10v13.6h48v-12.8c2.6-2.5 2.7-6.6.2-9.2-1.1-1.3-2.8-2-4.6-2zm-16.1 22h-2.4v-14.8c0-.4.2-.7.5-.9l11.2-6 2.6 1.2c-1.5 1.2-2.3 3.1-2.3 5v2.1l-8.9 8.9c-.7.7-1.1 1.6-1.1 2.6v.2c0 .6.2 1.2.4 1.7zm-13.7-46.2 4-1c4.1-1 8.4-1 12.6 0l4 1-.2 2.9-2.7-.7c-4.8-1.3-9.9-1.3-14.7 0l-2.7.7zm15.5-3.3c-1.4-.3-2.8-.4-4.2-.5v-6c1.7 0 3.3.2 4.9.5zm-6.2-.5c-1.4 0-2.8.2-4.2.5l-.7-5.9c1.6-.3 3.2-.5 4.9-.6zm14 11c.6 0 1 .4 1 1v1c0 .3-.1.6-.4.8l-1.6 1.2v-4zm-2.9-15.4c.5.1.8.6.8 1l-.4 5.1-3.3-.8.7-5.9zm-20.2 0 2.2-.6.7 5.9-3.3.8-.4-5.1c0-.5.3-.9.8-1zm-3.9 17.4v-1c0-.6.4-1 1-1h1v4l-1.6-1.2c-.3-.2-.4-.5-.4-.8zm4 2.5v-6.7l3.2-.9c4.5-1.2 9.2-1.2 13.7 0l3.2.9v6.7c0 3.1-1.6 5.9-4.2 7.6l-3.1 2c-1.6 1-3.7 1-5.4 0l-3.1-2c-2.7-1.6-4.3-4.5-4.3-7.6zm-12 22.8c0-3.5 2-6.7 5.2-8.1l4.5-2.1 7 6.1c.2.2.3.5.3.8v3h2v-3.1c0-.9-.4-1.7-1-2.3l-6.3-5.5 4.1-1.9 2.5 1.6c2.3 1.5 5.2 1.5 7.5 0l2.5-1.6 4.3 2-9.9 5.3c-1 .5-1.6 1.5-1.6 2.6v14.9h-10.1v-8h-2v8h-9zm44 11.7h-11.9l7.4-9h2c.9 0 1.7-.2 2.5-.5zm-2.5-11h-3l-8.5 10.4c-.6.7-1.7.8-2.4.2-.4-.3-.6-.8-.6-1.3v-.2c0-.5.2-.9.5-1.2l9.5-9.5v-2.9c0-2.5 2-4.5 4.5-4.5s4.5 2 4.5 4.5-2 4.5-4.5 4.5z"/></svg>