<?xml version="1.0" encoding="UTF-8"?>
<!DOCTYPE svg PUBLIC "-//W3C//DTD SVG 1.1//EN" "http://www.w3.org/Graphics/SVG/1.1/DTD/svg11.dtd">
<!-- Creator: CorelDRAW X6 -->
<svg xmlns="http://www.w3.org/2000/svg" xml:space="preserve" width="42.3332mm" height="42.3332mm" version="1.1" style="shape-rendering:geometricPrecision; text-rendering:geometricPrecision; image-rendering:optimizeQuality; fill-rule:evenodd; clip-rule:evenodd"
viewBox="0 0 4233 4233"
 xmlns:xlink="http://www.w3.org/1999/xlink">
 <defs>
  <style type="text/css">
   <![CDATA[
    .fil0 {fill:#333A90}
    .fil1 {fill:#FEFEFE}
   ]]>
  </style>
 </defs>
 <g id="Layer_x0020_1">
  <metadata id="CorelCorpID_0Corel-Layer"/>
  <g id="_704358480">
   <path class="fil0" d="M4063 2117c0,1075 -871,1946 -1946,1946 -1075,0 -1946,-871 -1946,-1946 0,-1075 871,-1946 1946,-1946 1075,0 1946,871 1946,1946z"/>
   <path class="fil1" d="M1994 2333c0,0 -3,-352 -265,-465 -320,-138 -641,60 -641,60 0,0 114,316 387,468 247,137 402,155 402,155l24 343 92 0 -3 -334 36 0 18 435 91 0 18 -435 36 0 -3 334 92 0 24 -343c0,0 155,-18 402,-155 273,-151 387,-468 387,-468 0,0 -321,-198 -641,-60 -262,113 -265,465 -265,465l-48 3c0,0 -9,-101 27,-337 36,-235 107,-319 107,-319 0,0 164,86 423,18 270,-71 334,-280 334,-280 0,0 -185,-86 -426,-75 -235,12 -375,191 -375,191 0,0 -18,-9 -30,-18 -12,-9 -15,-21 -15,-21 0,0 155,-149 158,-361 3,-241 -250,-396 -250,-396l-2 0c0,0 -254,155 -250,396 3,212 158,361 158,361 0,0 -3,12 -15,21 -12,9 -30,18 -30,18 0,0 -140,-179 -375,-191 -241,-12 -426,75 -426,75 0,0 64,209 334,280 259,69 423,-18 423,-18 0,0 72,83 107,319 36,235 27,337 27,337l-48 -3zm-459 -146c-244,-122 -277,-221 -277,-221 0,0 170,-30 361,66 191,95 229,268 229,268 0,0 -59,14 -313,-113zm1051 -155c191,-95 361,-66 361,-66 0,0 -33,98 -277,221 -254,127 -313,113 -313,113 0,0 39,-173 229,-268zm6 -576c113,-27 280,-3 280,-3 0,0 -101,85 -262,111 -161,27 -191,-6 -191,-6 0,0 60,-76 173,-103zm-997 109c-161,-27 -265,-115 -265,-115 0,0 169,-20 283,7 113,27 173,103 173,103 0,0 -30,33 -191,6zm416 -423c12,-107 77,-218 77,-218 0,0 72,113 72,221 0,104 -72,235 -72,235 0,0 -89,-131 -77,-238zm23 491c0,0 21,-20 35,-33 13,-13 33,-36 33,-36 0,0 20,23 31,35 12,12 35,33 35,33 0,0 -20,40 -31,66 -13,30 -36,84 -36,84 0,0 -28,-67 -38,-89 -10,-21 -28,-59 -28,-59zm671 1462c-107,2 -193,-60 -330,-57 -147,3 -262,107 -299,107l-6 0c-36,0 -152,-104 -299,-107 -137,-3 -223,58 -330,57 -107,-2 -158,-35 -158,-35l-55 147c0,0 71,43 221,39 161,-3 187,-57 332,-51 149,6 207,141 289,141l6 0c82,0 141,-134 289,-141 145,-6 171,47 332,51 150,3 221,-39 221,-39l-55 -147c0,0 -51,33 -158,35z"/>
   <g>
    <polygon class="fil1" points="580,3134 547,3085 816,2908 849,2958 "/>
    <polygon class="fil1" points="407,2827 385,2763 563,2561 562,2560 341,2636 322,2580 626,2476 648,2538 470,2741 471,2742 692,2666 711,2722 "/>
    <path class="fil1" d="M499 2240c32,-5 42,-27 41,-45 -1,-23 -18,-43 -43,-42 -33,2 -38,23 -51,64 -8,25 -21,78 -88,81 -51,3 -94,-35 -97,-89 -2,-37 21,-93 86,-100l3 61c-28,4 -35,22 -34,38 1,19 15,32 34,31 28,-2 33,-23 42,-56 7,-27 25,-86 94,-89 69,-4 105,48 108,99 2,41 -22,103 -93,110l-3 -62z"/>
    <polygon class="fil1" points="345,1817 334,1876 279,1866 312,1690 367,1700 356,1759 617,1807 606,1865 "/>
    <polygon class="fil1" points="389,1449 411,1394 709,1516 686,1571 "/>
    <polygon class="fil1" points="606,1149 572,1198 526,1167 626,1019 672,1050 639,1099 859,1248 826,1297 "/>
    <path class="fil1" d="M838 784l135 153c11,12 45,51 87,14 42,-37 7,-76 -4,-88l-135 -153 45 -39 135 153c17,20 34,43 36,69 3,32 -7,70 -40,99 -37,33 -79,34 -102,29 -17,-3 -40,-15 -67,-45l-135 -153 45 -39z"/>
    <polygon class="fil1" points="1258,551 1205,578 1180,529 1339,448 1365,497 1311,524 1432,761 1379,788 "/>
    <path class="fil1" d="M1918 296l81 -3c34,-1 64,-3 95,22 22,18 32,43 34,73 1,30 -7,55 -27,75 -29,27 -59,28 -93,30l-21 1 5 122 -59 3 -14 -321zm66 141l19 -1c26,-1 67,-5 65,-47 -2,-42 -43,-42 -67,-41l-21 1 4 88z"/>
    <polygon class="fil1" points="2386,314 2555,350 2543,404 2432,380 2415,457 2522,480 2510,535 2404,512 2388,586 2498,610 2487,664 2318,628 "/>
    <path class="fil1" d="M2825 445l88 45c33,17 50,33 60,55 10,21 15,54 -2,86 -10,19 -32,45 -62,54 -25,8 -44,3 -60,-1l24 145 -64 -33 -20 -148 -1 0 -56 109 -53 -27 146 -286zm-17 164l34 17c44,22 66,-3 74,-18 8,-16 13,-48 -29,-69l-34 -17 -45 87z"/>
    <polygon class="fil1" points="3224,763 3179,724 3216,682 3351,800 3314,842 3269,803 3094,1003 3049,964 "/>
    <path class="fil1" d="M3589 1086l26 39 -194 290 -36 -55 50 -74 -64 -96 -88 17 -36 -55 342 -66zm-160 89l41 62 62 -85 0 -1 -102 24z"/>
    <polygon class="fil1" points="3800,1490 3819,1555 3630,1747 3630,1748 3855,1684 3871,1742 3562,1829 3544,1765 3732,1572 3732,1571 3507,1635 3491,1577 "/>
    <polygon class="fil1" points="3902,2028 3904,2088 3583,2097 3581,2038 "/>
    <path class="fil1" d="M3866 2484l-10 45 -343 61 14 -64 88 -15 25 -112 -74 -52 14 -64 285 201zm-175 -53l-16 72 104 -14 0 -1 -88 -57z"/>
    <polygon class="fil1" points="3722,2916 3687,2974 3419,2971 3418,2972 3620,3090 3590,3141 3312,2979 3346,2921 3615,2923 3616,2923 3414,2805 3444,2753 "/>
   </g>
   <g>
    <path class="fil1" d="M1299 3409l50 28c28,16 56,31 66,63 6,18 5,42 -5,59 -18,32 -45,32 -55,32 13,15 32,44 8,87 -17,30 -44,40 -65,42 -26,2 -57,-12 -73,-22l-67 -38 142 -251zm-71 234l23 13c9,5 47,26 65,-6 6,-10 14,-36 -27,-59l-24 -14 -38 66zm62 -110l15 9c11,6 40,23 55,-5 8,-15 6,-33 -21,-47l-19 -11 -31 54z"/>
    <path class="fil1" d="M1681 3576c78,24 125,107 100,188 -24,79 -109,123 -188,98 -79,-24 -125,-108 -100,-187 25,-82 110,-124 188,-100zm-73 239c53,16 107,-16 122,-67 16,-53 -12,-109 -64,-125 -52,-16 -106,15 -123,68 -16,51 11,108 64,124z"/>
    <path class="fil1" d="M2008 3789l188 14 0 6c-6,82 -83,141 -163,135 -82,-6 -150,-75 -144,-161 6,-85 83,-144 164,-138 72,5 121,58 133,100l-64 -5c-11,-20 -36,-43 -74,-46 -65,-5 -103,48 -106,93 -3,44 26,102 94,107 35,3 70,-14 89,-47l-120 -9 4 -50z"/>
    <path class="fil1" d="M2421 3623c80,-19 162,29 182,112 19,80 -31,161 -112,180 -81,19 -162,-30 -181,-110 -20,-83 32,-163 112,-182zm58 243c53,-13 84,-68 72,-120 -13,-54 -65,-88 -118,-75 -53,13 -84,67 -71,120 12,52 64,87 118,74z"/>
    <path class="fil1" d="M2652 3553l79 -39c30,-14 51,-18 72,-13 21,5 46,18 61,48 8,17 15,47 5,74 -8,22 -21,33 -33,42l117 61 -58 28 -117 -66 -1 0 48 99 -48 23 -126 -259zm108 101l31 -15c40,-19 33,-49 27,-62 -7,-14 -28,-35 -65,-17l-31 15 38 79z"/>
   </g>
   <path class="fil0" d="M0 2117c0,1167 950,2117 2117,2117 1167,0 2117,-950 2117,-2117 0,-1167 -950,-2117 -2117,-2117 -1167,0 -2117,950 -2117,2117zm60 0c0,-1134 923,-2057 2057,-2057 1134,0 2057,923 2057,2057 0,1134 -923,2057 -2057,2057 -1134,0 -2057,-923 -2057,-2057z"/>
  </g>
 </g>
</svg>
